<svg width="250" height="71" viewBox="0 0 250 71" fill="none" xmlns="http://www.w3.org/2000/svg">
<g clip-path="url(#clip0_753_455)">
<path d="M56.6891 53.8037L60.6922 28.7909C60.8213 28.0092 61.2087 27.3578 61.8543 27.0973L61.9835 26.5762C62.1126 25.9248 61.9835 25.4037 61.7252 25.1432C61.4669 24.8826 61.0795 24.6221 60.563 24.6221C59.4008 24.6221 58.7552 25.2734 58.4969 26.4459L54.4938 51.9799C54.3647 52.6312 54.4938 53.1523 54.7521 53.4129C55.0103 53.6734 55.3977 53.934 55.9143 53.934C56.1725 53.934 56.4308 53.934 56.6891 53.8037Z" fill="#2D2D2D"/>
<path d="M70.7645 23.8403L68.6983 21.7559C69.8605 23.1889 70.3771 25.143 69.9897 27.7485L66.2448 51.3283C65.2118 57.0605 61.4669 59.4054 55.1395 59.4054C52.0403 59.4054 49.7159 58.754 48.1663 57.321L50.3616 59.5357C51.9112 60.9687 54.3647 61.6201 57.4638 61.6201C63.7913 61.6201 67.6653 59.2751 68.5692 53.543L72.314 29.5724C72.5723 27.0971 72.0558 25.143 70.7645 23.8403Z" fill="#2D2D2D"/>
<path d="M169.938 10.0312L162.319 59.0147H153.796L156.121 61.3597H164.514L172.262 12.2459L169.938 10.0312Z" fill="#2D2D2D"/>
<path d="M90.3925 29.0513L89.4886 28.921C87.1642 28.5302 84.3233 28.6605 83.8068 32.0476L79.158 61.3596H70.7644L68.4401 59.0146H76.8337L81.4824 29.7027C82.1281 25.6642 85.8729 26.1853 88.4556 26.8366L89.6178 19.4109V19.1504L90.7799 20.3229L91.5547 21.1045L90.3925 29.0513Z" fill="#2D2D2D"/>
<path d="M101.885 10.0312L94.1374 59.0147H85.7438L87.939 61.3597H96.4618L104.081 12.2459L101.885 10.0312Z" fill="#2D2D2D"/>
<path d="M114.54 26.5763C114.669 25.9249 114.54 25.4038 114.282 25.1433C114.024 24.8827 113.636 24.7524 113.12 24.7524C111.958 24.7524 111.312 25.4038 111.054 26.5763L107.051 52.1102C106.921 52.7616 107.051 53.2827 107.309 53.5433C107.567 53.8038 107.955 54.0644 108.471 54.0644C108.858 54.0644 109.117 54.0644 109.375 53.9341L113.378 28.9212C113.507 28.1396 113.895 27.4882 114.54 27.2277V26.5763Z" fill="#2D2D2D"/>
<path d="M125.387 10.0312L117.639 59.0147H112.603L111.183 56.5395C109.633 58.3634 107.567 59.4056 104.726 59.4056C102.66 59.4056 100.981 58.8845 99.9484 57.9725L102.014 60.0569C103.048 61.0991 104.726 61.6202 106.922 61.6202C109.504 61.6202 111.441 60.8386 112.862 59.2753L113.636 60.0569L114.799 61.2294H119.835L127.583 12.2459L125.387 10.0312Z" fill="#2D2D2D"/>
<path d="M51.782 9.90088L36.9318 58.8844H28.0217L30.3461 61.099H39.1271L54.1064 12.1156L51.782 9.90088Z" fill="#2D2D2D"/>
<path d="M199.638 45.2056L198.605 52.1102C198.476 52.7615 198.605 53.2826 198.864 53.5432C199.122 53.8037 199.509 54.0643 200.026 54.0643C200.413 54.0643 200.671 54.0643 200.93 53.934L201.963 47.5505L199.638 45.2056Z" fill="#2D2D2D"/>
<path d="M215.263 23.9705L213.068 21.7559C214.36 23.3192 214.747 25.4036 214.23 27.8788L213.456 32.4384H205.32L207.645 34.6531H215.78L216.426 30.8751L216.684 28.6604C216.813 26.7063 216.426 25.143 215.263 23.9705Z" fill="#2D2D2D"/>
<path d="M206.224 27.0973C205.579 27.3578 205.191 28.0092 205.062 28.7909L204.416 33.09C204.287 33.8716 204.287 34.3927 204.675 34.9138L203.383 33.7413C202.35 32.9597 201.963 32.0478 202.221 30.745L202.867 26.4459C203.125 25.2734 203.771 24.6221 204.933 24.6221C205.449 24.6221 205.837 24.7523 206.095 25.1432C206.353 25.534 206.482 25.9248 206.353 26.5762L206.224 27.0973Z" fill="#2D2D2D"/>
<path d="M209.323 39.2129C211.389 41.4276 211.777 44.5542 211.26 47.8111L210.615 51.3285C209.582 57.0606 206.095 59.4055 199.251 59.4055C196.152 59.4055 193.827 58.6239 192.278 57.1909L194.473 59.4055C196.023 60.9689 198.476 61.6202 201.446 61.6202C208.29 61.6202 211.777 59.2753 212.81 53.5432L213.585 48.2019C213.714 45.5964 213.197 43.2514 211.389 41.4276L209.323 39.2129Z" fill="#2D2D2D"/>
<path d="M224.303 53.8036C224.044 53.9339 223.786 53.9339 223.399 53.9339C222.882 53.9339 222.495 53.8036 222.237 53.4128C221.978 53.022 221.849 52.6312 221.978 51.9798L223.011 45.0752L225.207 47.2899L224.303 53.8036Z" fill="#2D2D2D"/>
<path d="M232.696 39.2129C234.762 41.4276 235.15 44.5542 234.633 47.8111L233.988 51.3285C232.955 57.0606 229.468 59.4055 222.624 59.4055C219.525 59.4055 217.2 58.6239 215.651 57.1909L217.975 59.4055C219.525 60.9689 221.978 61.6202 224.948 61.6202C231.792 61.6202 235.279 59.2753 236.312 53.5432L237.087 48.2019C237.216 45.5964 236.699 43.2514 234.892 41.4276L232.696 39.2129Z" fill="#2D2D2D"/>
<path d="M226.756 33.8717L228.048 35.0442C227.789 34.5231 227.789 33.8717 227.918 33.2203L228.564 28.9212C228.693 28.1396 229.081 27.4882 229.726 27.2277L229.855 26.7066C229.985 26.0552 229.855 25.5341 229.597 25.2735C229.339 25.013 228.951 24.7524 228.435 24.7524C227.273 24.7524 226.627 25.4038 226.369 26.5763L225.723 30.8754C225.465 32.1781 225.723 33.0901 226.756 33.8717Z" fill="#2D2D2D"/>
<path d="M238.765 23.9705L236.57 21.7559C237.862 23.3192 238.249 25.4036 237.732 27.8788L236.958 32.4384H228.693L231.018 34.6531H239.153L239.799 30.8751L240.186 28.6604C240.315 26.7063 239.928 25.143 238.765 23.9705Z" fill="#2D2D2D"/>
<path d="M191.761 24.1009L189.566 21.8862C190.728 23.189 191.245 25.1431 190.857 27.6183L185.95 59.0147H180.785L179.365 56.5394C177.815 58.3633 175.878 59.4055 172.908 59.4055C170.842 59.4055 169.163 58.8844 168.13 57.9725L170.196 60.0569C171.229 61.2293 172.908 61.7505 175.232 61.7505C177.815 61.7505 179.752 60.9688 181.173 59.4055L183.11 61.3596H188.146L189.695 51.4587L192.924 30.7449L193.182 29.0514C193.311 26.8367 192.794 25.2734 191.761 24.1009Z" fill="#2D2D2D"/>
<path d="M179.752 44.9448C178.977 45.5962 178.59 46.3778 178.461 47.42L177.428 53.8035C177.169 53.9338 176.911 53.9338 176.524 53.9338C176.007 53.9338 175.62 53.8035 175.362 53.4127C175.103 53.1521 175.103 52.7613 175.103 52.3705C175.103 52.2402 175.103 52.1099 175.103 51.9796L176.136 45.0751C176.395 43.642 177.04 42.7301 178.332 41.9485L180.269 40.9062L179.752 44.9448Z" fill="#2D2D2D"/>
<path d="M180.527 34.6533L181.431 28.7909C181.56 28.0092 181.947 27.3578 182.593 27.0973L182.722 26.5762C182.851 25.9248 182.722 25.4037 182.464 25.1432C182.206 24.8826 181.818 24.6221 181.302 24.6221C180.139 24.6221 179.494 25.2734 179.236 26.4459L178.332 32.3083H169.938L172.262 34.523H178.332L180.527 34.6533Z" fill="#2D2D2D"/>
<path d="M157.541 14.3305L155.475 12.2461C156.767 13.6791 157.283 15.6332 156.896 18.2388L155.475 27.2277H146.952L149.148 29.4424H157.67L159.22 19.281C159.349 17.1966 158.703 15.503 157.541 14.3305Z" fill="#2D2D2D"/>
<path d="M140.883 53.9338C141.142 53.9338 141.4 53.9338 141.658 53.8036L147.211 19.4109C147.34 18.499 147.856 17.8476 148.631 17.587V17.1962C148.76 16.5448 148.631 16.0237 148.373 15.6329C148.115 15.3724 147.598 15.1118 147.082 15.1118C145.919 15.1118 145.145 15.7632 145.015 17.0659L139.463 51.8494C139.334 52.5008 139.463 53.0219 139.721 53.4127C139.85 53.6733 140.238 53.9338 140.883 53.9338Z" fill="#2D2D2D"/>
<path d="M151.601 51.0678C150.697 56.7999 146.565 59.4054 140.367 59.4054C136.751 59.4054 134.168 58.6238 132.49 57.1908L134.685 59.4054C136.235 60.9687 138.946 61.7504 142.562 61.7504C148.631 61.7504 152.893 59.1449 153.797 53.4128L155.604 41.9486L153.409 39.7339L151.601 51.0678Z" fill="#2D2D2D"/>
<path d="M61.8543 26.5762L57.8512 52.1101C57.593 53.2826 56.9473 53.934 55.7851 53.934C55.2686 53.934 54.8812 53.8037 54.6229 53.4129C54.3647 53.022 54.2355 52.6312 54.3647 51.9799L58.3678 26.4459C58.626 25.2734 59.2717 24.622 60.4339 24.622C60.9504 24.622 61.3378 24.7523 61.5961 25.1431C61.9835 25.534 61.9835 25.9248 61.8543 26.5762ZM61.2087 19.2808C54.8812 19.2808 51.0072 21.756 49.9742 27.4881L46.2293 51.3285C45.5837 56.6698 49.0703 59.4055 55.1395 59.4055C61.4669 59.4055 65.3409 57.0606 66.2448 51.3285L69.9897 27.7487C70.8936 22.0165 67.5362 19.2808 61.2087 19.2808Z" fill="#E30907"/>
<path d="M162.319 59.0147L169.938 10.0312H161.544L153.796 59.0147H162.319Z" fill="#E30907"/>
<path d="M89.7469 19.5413V19.2808C86.7769 18.89 83.4194 19.5413 81.3533 22.1468L79.8037 19.6716H74.7676L68.5692 59.145H76.9628L81.6116 29.8331C82.2572 25.7946 86.0021 26.3157 88.5847 26.967L89.7469 19.5413ZM93.3626 10.0312L85.6147 59.0147H94.0083L101.756 10.0312H93.3626Z" fill="#E30907"/>
<path d="M114.54 26.5762L110.537 52.1101C110.279 53.2826 109.633 53.934 108.471 53.934C107.955 53.934 107.567 53.8037 107.309 53.4129C107.051 53.0221 106.921 52.6313 107.051 51.9799L111.054 26.5762C111.312 25.4037 111.958 24.7524 113.12 24.7524C113.636 24.7524 114.024 24.8826 114.282 25.2735C114.54 25.534 114.669 26.0551 114.54 26.5762ZM116.994 10.0312L115.315 20.9744C114.153 19.8019 112.474 19.2808 110.279 19.2808C105.759 19.2808 103.564 21.6257 102.918 26.1854L98.7862 52.6313C98.0114 57.1909 100.465 59.5358 104.985 59.5358C107.825 59.5358 109.892 58.6239 111.441 56.6698L112.862 59.145H117.898L125.646 10.1615H116.994V10.0312Z" fill="#E30907"/>
<path d="M205.578 19.1504C199.122 19.1504 195.377 21.3651 194.344 27.3577L193.827 29.9632C193.182 33.6109 193.957 36.7375 196.797 39.0825L201.705 43.5119C202.608 44.2935 202.996 45.3357 202.867 46.3779L201.963 51.9798C201.705 53.1522 201.059 53.8036 199.897 53.8036C199.38 53.8036 198.993 53.6733 198.734 53.2825C198.476 52.8917 198.347 52.5009 198.476 51.8495L199.509 44.9449H191.503L190.47 51.0678C189.695 56.5394 193.311 59.2752 199.122 59.2752C205.966 59.2752 209.452 56.9302 210.486 51.1981L211.131 47.6807C211.777 44.033 211.26 40.5155 208.419 38.3008L203.254 33.7412C202.221 32.9596 201.834 32.0476 202.092 30.7449L202.738 26.4458C202.996 25.2733 203.642 24.622 204.804 24.622C205.32 24.622 205.708 24.7522 205.966 25.1431C206.224 25.5339 206.353 25.9247 206.224 26.5761L205.32 32.3082H213.585L214.359 27.7486C215.263 22.7981 212.81 19.1504 205.578 19.1504Z" fill="#E30907"/>
<path d="M229.081 19.1504C222.624 19.1504 218.879 21.3651 217.846 27.3577L217.33 29.9632C216.684 33.6109 217.459 36.7375 220.3 39.0825L225.207 43.5119C226.111 44.2935 226.498 45.3357 226.369 46.3779L225.465 51.9798C225.207 53.1522 224.561 53.8036 223.399 53.8036C222.882 53.8036 222.495 53.6733 222.237 53.2825C221.978 52.8917 221.849 52.5009 221.978 51.8495L223.011 44.9449H215.005L213.972 51.0678C213.197 56.5394 216.813 59.2752 222.624 59.2752C229.468 59.2752 232.955 56.9302 233.988 51.1981L234.633 47.6807C235.279 44.033 234.762 40.5155 231.921 38.3008L226.756 33.7412C225.723 32.9596 225.336 32.0476 225.594 30.7449L226.24 26.4458C226.498 25.2733 227.144 24.622 228.306 24.622C228.822 24.622 229.21 24.7522 229.468 25.1431C229.726 25.5339 229.855 25.9247 229.726 26.5761L228.822 32.3082H237.087L237.862 27.7486C238.765 22.7981 236.312 19.1504 229.081 19.1504Z" fill="#E30907"/>
<path d="M178.59 52.1101C178.332 53.2826 177.686 53.934 176.524 53.934C176.007 53.934 175.62 53.8037 175.362 53.4129C175.103 53.1523 175.103 52.7615 175.103 52.3707C175.103 52.2404 175.103 52.1101 175.103 51.9799L176.136 45.0753C176.395 43.6422 177.04 42.7303 178.332 41.9487L180.269 40.9064L178.59 52.1101ZM182.076 19.2808C175.749 19.2808 171.746 21.756 170.713 27.4881L169.938 32.4386H178.332L179.236 26.5762C179.494 25.4037 180.139 24.7523 181.302 24.7523C181.818 24.7523 182.206 24.8826 182.464 25.2734C182.722 25.6642 182.851 26.0551 182.722 26.7064L181.56 34.2624L173.812 38.4312C170.196 40.3853 168.388 42.8606 167.743 46.8991L166.839 52.6312C166.064 57.1909 168.518 59.5358 173.037 59.5358C175.878 59.5358 177.944 58.6239 179.494 56.6698L180.914 59.145H185.95L190.857 27.7487C191.761 21.8863 187.887 19.2808 182.076 19.2808Z" fill="#E30907"/>
<path d="M147.598 9.64014C141.271 9.64014 136.88 12.2456 135.976 17.9778L130.811 50.6768C129.907 56.2787 133.135 59.4053 140.496 59.4053C146.565 59.4053 150.697 56.7998 151.73 51.0677L153.667 39.6034H145.145V39.7337L143.208 51.9796C143.079 53.2823 142.304 53.9337 141.142 53.9337C140.625 53.9337 140.108 53.8034 139.85 53.4126C139.592 53.0218 139.463 52.5007 139.592 51.8493L145.145 17.0658C145.403 15.7631 146.049 15.1117 147.211 15.1117C147.727 15.1117 148.244 15.242 148.502 15.6328C148.76 16.0236 148.889 16.5447 148.76 17.1961L147.082 27.3576H155.604L157.025 18.3686C157.67 12.3759 153.926 9.64014 147.598 9.64014Z" fill="#E30907"/>
<path d="M3.74484 65.0072H6.06922V6.12279H59.6591L60.3048 3.77783H3.74484V65.0072Z" fill="#2D2D2D"/>
<path d="M132.231 6.12279H90.5217L88.9721 15.7632H59.6591L57.4638 13.5485H86.7768L88.3264 3.77783H132.49L132.231 6.12279Z" fill="#2D2D2D"/>
<path d="M134.685 12.2458C138.559 7.68618 142.949 6.12288 147.986 6.12288H176.653L177.04 3.9082H147.598C142.175 3.9082 137.009 6.38343 133.394 10.5522L131.198 13.0275L132.619 14.5908L134.685 12.2458Z" fill="#2D2D2D"/>
<path d="M182.076 9.37991C181.431 9.37991 180.656 9.37991 180.01 9.51019L181.431 0.130371L183.626 2.34505L182.593 9.37991H182.076Z" fill="#2D2D2D"/>
<path d="M136.493 2.99633C137.268 2.6055 138.042 2.21468 138.817 1.82385L136.88 0L136.493 2.99633Z" fill="#2D2D2D"/>
<path d="M65.3409 0L62.5 9.64037H65.47L67.6653 2.21468L65.3409 0Z" fill="#2D2D2D"/>
<path d="M129.39 62.2718C129.132 62.1415 128.874 61.7507 128.616 61.4901C127.066 59.536 126.55 56.8002 126.55 56.8002L124.613 54.7158C124.613 54.7158 125.129 57.5819 127.583 60.4479C127.97 61.0993 128.616 61.7507 129.39 62.2718Z" fill="#2D2D2D"/>
<path d="M241.994 18.7595C241.735 18.4989 241.606 18.1081 241.348 17.8475C238.765 14.7209 234.633 13.0273 229.08 13.0273C224.302 13.0273 220.428 14.1998 217.458 16.2842L216.942 16.9356L216.296 16.4145C213.714 14.1998 210.098 13.1576 205.578 13.1576C200.8 13.1576 196.797 14.3301 193.956 16.5448L193.311 17.0659L192.665 16.5448C189.953 14.3301 186.467 13.1576 181.947 13.1576C180.139 13.1576 178.331 13.2879 176.782 13.6787L175.361 13.9393L177.557 16.1539L178.977 15.8934C180.527 15.5026 182.334 15.3723 184.142 15.3723C188.533 15.3723 192.149 16.5448 194.86 18.7595L195.506 19.2806L196.152 18.7595C198.993 16.5448 202.996 15.3723 207.774 15.3723C212.293 15.3723 215.909 16.4145 218.491 18.6292L219.137 19.1503L219.783 18.6292C222.624 16.4145 226.498 15.3723 231.276 15.3723C235.279 15.3723 238.636 16.2842 241.09 17.9778C241.606 18.2384 241.864 18.6292 241.994 18.7595Z" fill="#2D2D2D"/>
<path d="M243.673 28.9211L239.928 52.6312C239.024 58.1028 237.732 65.0073 224.948 65.0073H140.367C134.168 65.0073 129.907 63.7046 127.453 60.578C125.129 57.7119 124.483 54.8459 124.483 54.8459L122.805 65.1376H55.1395C48.6828 65.1376 45.0671 63.3138 43.2593 61.2294C43.2593 61.2294 43.2593 61.0991 43.1302 61.0991L41.968 65.1376H3.74483V3.77798H60.3047L57.3347 13.4183H86.6477L88.1973 3.77798H132.49L131.198 13.0275L133.394 10.422C137.009 6.12294 142.175 3.77798 147.598 3.77798H177.04L175.491 13.9395L176.911 13.6789C178.461 13.2881 180.269 13.1578 182.076 13.1578C186.467 13.1578 190.083 14.3303 192.794 16.545L193.44 17.0661L194.086 16.545C197.056 14.3303 200.93 13.1578 205.708 13.1578C210.227 13.1578 213.843 14.2 216.426 16.4147L216.942 16.9358L217.588 16.4147C220.429 14.2 224.432 13.1578 229.21 13.1578C234.762 13.1578 238.765 14.7211 241.477 17.978C243.027 19.9321 244.706 23.4495 243.673 28.9211ZM0 68.7853H44.6797L45.1963 67.222C47.6498 68.5248 50.8781 68.7853 55.1395 68.7853H126.162L126.808 65.0073C130.036 67.6129 134.427 68.7853 140.496 68.7853H225.077C241.09 68.7853 242.898 58.7541 243.802 53.2826L247.546 29.5725C248.838 22.6679 246.513 18.1083 244.318 15.5028C240.961 11.3339 235.795 9.37982 229.21 9.24954C224.432 9.24954 220.429 10.2917 217.071 12.1156C213.972 10.1615 210.227 9.24954 205.708 9.24954C200.93 9.24954 196.798 10.2917 193.44 12.2459C190.341 10.2917 186.596 9.24954 182.076 9.24954C181.431 9.24954 180.656 9.24954 180.01 9.37982L181.431 0H155.604H147.598C143.724 0 139.85 1.0422 136.493 2.99633L136.88 0H85.0981L83.5485 9.64037H62.5L65.3409 0H0V68.7853Z" fill="#E30907"/>
<path d="M243.673 28.9211L239.928 52.6312C239.024 58.1028 237.732 65.0073 224.948 65.0073H140.367C134.168 65.0073 129.907 63.7046 127.453 60.578C125.129 57.7119 124.483 54.8459 124.483 54.8459L122.805 65.1376H55.1395C48.6828 65.1376 45.0671 63.3138 43.2593 61.2294C43.2593 61.2294 43.2593 61.0991 43.1302 61.0991L41.968 65.1376H3.74483V3.77798H60.3047L57.3347 13.4183H86.6477L88.1973 3.77798H132.49L131.198 13.0275L133.394 10.422C137.009 6.12294 142.175 3.77798 147.598 3.77798H177.04L175.491 13.9395L176.911 13.6789C178.461 13.2881 180.269 13.1578 182.076 13.1578C186.467 13.1578 190.083 14.3303 192.794 16.545L193.44 17.0661L194.086 16.545C197.056 14.3303 200.93 13.1578 205.708 13.1578C210.227 13.1578 213.843 14.2 216.426 16.4147L216.942 16.9358L217.588 16.4147C220.429 14.2 224.432 13.1578 229.21 13.1578C234.762 13.1578 238.765 14.7211 241.477 17.978C243.027 19.9321 244.706 23.4495 243.673 28.9211ZM0 68.7853H44.6797L45.1963 67.222C47.6498 68.5248 50.8781 68.7853 55.1395 68.7853H126.162L126.808 65.0073C130.036 67.6129 134.427 68.7853 140.496 68.7853H225.077C241.09 68.7853 242.898 58.7541 243.802 53.2826L247.546 29.5725C248.838 22.6679 246.513 18.1083 244.318 15.5028C240.961 11.3339 235.795 9.37982 229.21 9.24954C224.432 9.24954 220.429 10.2917 217.071 12.1156C213.972 10.1615 210.227 9.24954 205.708 9.24954C200.93 9.24954 196.798 10.2917 193.44 12.2459C190.341 10.2917 186.596 9.24954 182.076 9.24954C181.431 9.24954 180.656 9.24954 180.01 9.37982L181.431 0H155.604H147.598C143.724 0 139.85 1.0422 136.493 2.99633L136.88 0H85.0981L83.5485 9.64037H62.5L65.3409 0H0V68.7853Z" fill="#E30907"/>
<path d="M247.03 18.4991C246.901 18.2385 246.643 17.978 246.513 17.8477C246.255 17.4569 245.868 17.066 245.609 16.8055L243.414 14.5908C243.543 14.7211 243.673 14.8514 243.802 15.1119C243.802 15.1119 243.802 15.2422 243.931 15.2422C244.06 15.3725 244.189 15.633 244.318 15.7633C246.513 18.3688 248.709 22.9284 247.546 29.833L243.802 53.5431C242.898 59.0147 241.09 69.0459 225.077 69.0459H140.496C134.556 69.0459 130.165 67.8734 126.808 65.2679L126.162 69.0459H55.1395C51.0072 69.0459 47.9081 68.655 45.4545 67.6128L45.1963 67.222L44.6797 68.7853H0L2.19525 71H46.875L47.3915 69.4367C49.845 70.7394 53.0733 71 57.3347 71H128.357L129.003 67.222C132.231 69.8275 136.622 71 142.691 71H227.273C243.285 71 245.093 60.9688 245.997 55.4972L249.742 31.7871C250.775 25.5339 248.967 21.2349 247.03 18.4991Z" fill="#2D2D2D"/>
<path d="M36.9318 58.8844L51.782 9.90088H43.3884L35.6405 34.6532H35.124L35.2531 9.90088H25.9556L18.595 34.7834H18.0785V9.90088H9.81406V58.8844H18.7242L26.9886 30.7449H27.5052L28.0217 58.8844H36.9318Z" fill="#E30907"/>
<path d="M18.0785 34.7834H18.5951L20.4029 28.6605V12.1156L18.0785 9.90088V34.7834Z" fill="#2D2D2D"/>
<path d="M35.6405 34.6532L37.4483 29.0513V27.0972V12.1156L35.2531 9.90088L35.124 34.6532H35.6405Z" fill="#2D2D2D"/>
<path d="M27.5052 30.7451H26.9886L18.7242 58.8846H9.81406L12.0093 61.0992H21.0486L27.6343 38.4314L27.5052 30.7451Z" fill="#2D2D2D"/>
</g>
<defs>
<clipPath id="clip0_753_455">
<rect width="250" height="71" fill="white"/>
</clipPath>
</defs>
</svg>
